<svg xmlns="http://www.w3.org/2000/svg" xml:space="preserve" width="32" height="32" aria-hidden="true" class="ugb-custom-icon" viewBox="0 0 100 100"><rect width="100%" height="100%" fill="transparent"/><path d="m0 0 3.134.017C76.982.417 150.356 10.635 222 28.313l2.238.548C268.823 39.827 312.628 54.672 355 72.312l2.14.891c27.637 11.54 54.904 24.251 81.485 38.047l2.994 1.536c4.757 2.478 9.312 5.083 13.783 8.05 7.704 5.458 7.704 5.458 16.635 7.349 4.408-1.25 7.99-3.786 11.71-6.386 4.304-2.84 8.97-5.035 13.565-7.362q2.992-1.555 5.977-3.12l2.935-1.54a903 903 0 0 0 7.487-4C591.479 63.921 678.347 35.13 936.916.017q3.04-.017 6.08-.061c18.4-.264 35.968.933 50.317 13.981 9.948 10.643 12.298 23.66 11.996 37.637-.69 14.455-8.757 26.028-18.918 35.801-6.221 5.548-13.112 10.297-19.883 15.14a1203 1203 0 0 0-12.07 8.798l-2.368 1.74c-7.796 5.754-15.43 11.71-23.055 17.686a1168 1168 0 0 1-8.765 6.761c-9.535 7.325-18.999 14.73-28.281 22.375a1179 1179 0 0 1-6.75 5.5c-6.939 5.613-13.838 11.26-20.63 17.05a538 538 0 0 1-10.277 8.512c-4.403 3.582-8.616 7.328-12.808 11.153-2.461 2.185-4.99 4.237-7.567 6.285-5.862 4.735-11.3 9.887-16.748 15.09a348 348 0 0 1-12.226 11.128c-3.262 2.857-6.427 5.815-9.588 8.782l-2.076 1.945c-5.294 4.986-10.444 10.101-15.558 15.27a177 177 0 0 1-10.948 10.156c-4.7 4.106-8.97 8.598-13.04 13.32-4.351 5.002-9.061 9.607-13.792 14.247a205 205 0 0 0-11.277 12.062c-2.652 3.05-5.42 5.99-8.184 8.938-4.017 4.304-7.991 8.63-11.836 13.09-1.98 2.272-4.01 4.494-6.039 6.722-3.852 4.267-7.494 8.669-11.11 13.137-2.944 3.571-5.972 7.062-9.015 10.55a611 611 0 0 0-15.5 18.5l-1.386 1.718c-6.477 8.031-12.866 16.123-19.12 24.328-1.746 2.284-3.499 4.56-5.252 6.837-7.314 9.522-14.468 19.118-21.332 28.97-2.47 3.54-5.004 7.03-7.555 10.514-7.766 10.624-15.047 21.549-22.298 32.528a1860 1860 0 0 1-6.139 9.2c-22.268 33.196-43.132 67.228-62.793 102.03l-1.642 2.904c-2.29 4.055-4.569 8.114-6.792 12.206-7.31 13.37-15.501 22.417-30.28 27.16-3.937.99-7.743 1.095-11.786 1.043l-2.515-.023c-6.644-.178-12.19-1.267-18.11-4.414l-2.344-1.215c-11.605-6.856-17.287-18.388-23.36-29.895-4.271-8.082-8.794-15.984-13.483-23.828l-1.043-1.745q-2.498-4.178-5.001-8.355a932 932 0 0 1-5.679-9.668c-6.748-11.605-13.92-22.947-21.09-34.294l-1.93-3.065c-18.947-30.034-39.148-59.247-60.07-87.936l-1.703-2.339a1125 1125 0 0 0-24.676-32.594 1387 1387 0 0 1-4.558-5.848 566 566 0 0 0-16.45-20.14 453 453 0 0 1-7.05-8.516c-7.601-9.327-15.468-18.425-23.551-27.336a450 450 0 0 1-5.512-6.226c-3.356-3.852-6.769-7.65-10.191-11.442q-2.235-2.477-4.461-4.96-3.415-3.809-6.848-7.599l-1.339-1.48c-6.412-7.07-13.002-13.913-19.787-20.626a180 180 0 0 1-10.308-11.1c-4.096-4.689-8.575-8.95-13.289-13.008-5.24-4.56-10.057-9.516-14.922-14.47-3.993-4.036-8.068-7.884-12.373-11.587-4.108-3.582-8.025-7.375-11.982-11.123-6.67-6.292-13.59-12.277-20.562-18.23a2549 2549 0 0 1-15-12.938c-9.582-8.31-19.188-16.528-29.206-24.31-4.017-3.135-7.926-6.374-11.794-9.69-5.71-4.884-11.612-9.482-17.594-14.027-3.551-2.716-7.07-5.473-10.594-8.223-11.735-9.135-23.509-18.203-35.5-27A2291 2291 0 0 1-34.125 96l-2.583-1.92C-49.542 84.373-60.914 72.673-64 56.314c-1.398-13.732-.04-26.443 8.246-37.907C-40.909.685-21.497-.206 0 0Zm94 89.313c3.366 3.671 7.136 6.259 11.25 9 8.463 5.728 16.626 11.803 24.75 18l3.332 2.523c11.632 8.864 22.962 18.107 34.088 27.598a433 433 0 0 0 10.018 8.254c5.014 4.075 9.742 8.413 14.44 12.845 2.971 2.8 5.974 5.543 9.056 8.22 4.065 3.537 8.016 7.182 11.941 10.872l2.107 1.977a425 425 0 0 1 13.612 13.367c1.991 1.94 4.016 3.753 6.12 5.566 4.654 4.04 9.004 8.349 13.349 12.715l2.314 2.303a236 236 0 0 1 11.879 12.797c3.09 3.477 6.424 6.707 9.744 9.963 5.244 5.143 10.238 10.404 15 16a131 131 0 0 0 13.125-10.688c4.609-4.248 9.38-8.162 14.335-11.997 4.534-3.511 8.982-7.115 13.415-10.753 17.045-13.924 34.965-26.913 53.264-39.137 3.478-2.193 3.478-2.193 5.861-5.425-42.224-22.258-85.709-40.917-131-56l-2.319-.774c-47.517-15.794-96.531-27.946-145.974-35.934l-2.413-.395c-3.804-.6-7.428-1.057-11.294-.897Zm732.75 2.437-2.312.397C777.1 100.33 730.668 112.504 685 127.312l-2.11.683c-35.814 11.61-70.485 26.38-104.39 42.692l-3.597 1.731A409 409 0 0 0 554 183.312c3.733 3.983 7.65 6.988 12.188 10a2236 2236 0 0 1 6.549 4.447c18.186 12.482 35.473 26.154 52.523 40.13q2.34 1.912 4.69 3.814c3.964 3.218 7.894 6.459 11.73 9.828l1.92 1.678a464 464 0 0 1 3.719 3.295c3.332 3.101 3.332 3.101 7.681 3.808 1.598-1.274 1.598-1.274 3.117-3.042l1.82-1.987 1.938-2.158q2.025-2.211 4.055-4.418l2.061-2.244c3.408-3.648 6.958-7.15 10.532-10.636a137 137 0 0 0 7.793-8.323c4.004-4.626 8.286-8.94 12.621-13.254l2.303-2.314a238 238 0 0 1 12.891-11.973c2.926-2.584 5.642-5.36 8.369-8.15 3.975-4.02 7.975-7.912 12.29-11.57 3.08-2.69 6.041-5.505 9.023-8.305a265 265 0 0 1 15.542-13.45c2.803-2.306 5.475-4.717 8.145-7.175 5.33-4.894 10.868-9.462 16.5-14l3.828-3.137c7.354-6.027 14.757-11.945 22.422-17.575 2.057-1.514 4.104-3.04 6.152-4.566 8.51-6.322 17.067-12.533 25.874-18.435 1.59-1.073 3.16-2.177 4.724-3.287v-1c-6.837-.205-13.537 1.282-20.25 2.437ZM470 229.313c-22.214 14.688-22.214 14.688-44 30l-2.261 1.637c-16.724 12.146-32.999 24.823-48.982 37.925a1048 1048 0 0 1-4.847 3.934 346 346 0 0 0-15.547 13.363c-2.874 2.603-5.813 5.124-8.77 7.633-1.827 1.616-1.827 1.616-3.593 4.507l2.344 2.711c6.027 6.99 11.958 14.027 17.656 21.29l2.441 3.093q3.512 4.456 7.007 8.925 1.59 2.031 3.186 4.061c6.61 8.412 13.138 16.876 19.491 25.483l1.554 2.102c10.113 13.781 19.794 27.854 29.259 42.086l1.581 2.375c15.525 23.34 30.173 47.193 43.481 71.875 2.126-2.728 3.91-5.479 5.574-8.508l1.495-2.696 1.618-2.921c11.384-20.274 23.801-39.785 36.688-59.125l1.673-2.513c6.807-10.21 13.74-20.309 20.952-30.238l1.927-2.653q2.527-3.461 5.073-6.909l1.802-2.442c12.048-16.287 24.582-32.238 37.405-47.921l1.737-2.128q1.697-2.078 3.401-4.151A213 213 0 0 0 599 327.312c-5.09-5.351-10.465-10.102-16.223-14.722-2.612-2.142-5.105-4.364-7.59-6.652-5.56-5.06-11.456-9.638-17.399-14.236a609 609 0 0 1-5.093-4.007c-10.077-8-20.36-15.719-30.695-23.382l-2.169-1.616c-10.347-7.688-20.987-14.917-31.706-22.072l-2.031-1.358a2496 2496 0 0 0-5.774-3.841l-1.752-1.17c-2.782-1.838-5.54-3.542-8.568-4.943Z" style="stroke:#fff;stroke-width:0;stroke-dasharray:none;stroke-linecap:butt;stroke-dashoffset:0;stroke-linejoin:miter;stroke-miterlimit:4;fill:#fff;fill-rule:nonzero;opacity:1" transform="matrix(.09 0 0 .09 7.661 21.17)" vector-effect="non-scaling-stroke"/></svg>