<svg xmlns="http://www.w3.org/2000/svg" xml:space="preserve" width="32" height="32" aria-hidden="true" class="ugb-custom-icon" viewBox="0 0 100 100"><rect width="100%" height="100%" fill="transparent"/><path d="M150 928c0-216 1-235 21-276 13-26 38-54 62-70 36-24 51-27 148-30 101-4 108-3 119 18 9 17 8 26-5 46-14 22-21 24-105 24-80 0-92 3-117 24l-28 24-3 191-4 191h252l10 26c13 32 13 30-6 48-13 13-44 16-180 16H150z" style="stroke:none;stroke-width:1;stroke-dasharray:none;stroke-linecap:butt;stroke-dashoffset:0;stroke-linejoin:miter;stroke-miterlimit:4;fill:#fff;fill-rule:nonzero;opacity:1" transform="matrix(.06 0 0 -.06 -5.388 103.356)" vector-effect="non-scaling-stroke"/><path d="M542 1148c-8-8-12-52-12-130V900H416c-120 0-146-9-146-49 0-35 21-41 142-41h118V692c0-124 6-142 45-142s45 18 45 142v118h120c108 0 120 2 130 19 14 27 13 37-6 55-12 13-39 16-130 16H620v118c0 124-6 142-45 142-12 0-26-5-33-12" style="stroke:none;stroke-width:1;stroke-dasharray:none;stroke-linecap:butt;stroke-dashoffset:0;stroke-linejoin:miter;stroke-miterlimit:4;fill:#fff;fill-rule:nonzero;opacity:1" transform="matrix(.06 0 0 -.06 -4.998 103.357)" vector-effect="non-scaling-stroke"/><path d="M648 1134c-17-36 0-57 51-66 23-4 46-10 52-14 17-10 39-70 39-104 0-29 2-30 45-30h45v39c0 82-41 148-115 182-59 28-103 25-117-7" style="stroke:none;stroke-width:1;stroke-dasharray:none;stroke-linecap:butt;stroke-dashoffset:0;stroke-linejoin:miter;stroke-miterlimit:4;fill:#fff;fill-rule:nonzero;opacity:1" transform="matrix(.06 0 0 -.06 -4.699 103.06)" vector-effect="non-scaling-stroke"/><path d="M948 1149c-17-9-18-34-18-292 0-297 1-307 45-307s45 10 45 301c0 239-2 280-16 293-18 18-32 20-56 5" style="stroke:none;stroke-width:1;stroke-dasharray:none;stroke-linecap:butt;stroke-dashoffset:0;stroke-linejoin:miter;stroke-miterlimit:4;fill:#fff;fill-rule:nonzero;opacity:1" transform="matrix(.06 0 0 -.06 -4.355 103.36)" vector-effect="non-scaling-stroke"/><path d="M1194 1135c-28-14-60-40-74-62-24-35-25-44-28-209-3-155-1-176 16-211 24-47 47-68 95-88 80-33 193-7 238 56 30 42 42 94 29 119-20 38-90 16-90-28 0-52-71-88-135-71-56 16-65 45-65 209 0 146 5 171 44 202 45 37 141 12 152-40 12-58 22-72 53-72 99 0 27 178-84 209-61 17-96 13-151-14" style="stroke:none;stroke-width:1;stroke-dasharray:none;stroke-linecap:butt;stroke-dashoffset:0;stroke-linejoin:miter;stroke-miterlimit:4;fill:#fff;fill-rule:nonzero;opacity:1" transform="matrix(.06 0 0 -.06 -3.86 103.356)" vector-effect="non-scaling-stroke"/><path d="M1502 1144c-32-22-30-78 3-100 49-32 107 13 89 70-14 44-54 57-92 30m66-16c7-7 12-21 12-33 0-48-63-64-80-19-13 32-13 30 6 48 18 19 45 21 62 4" style="stroke:none;stroke-width:1;stroke-dasharray:none;stroke-linecap:butt;stroke-dashoffset:0;stroke-linejoin:miter;stroke-miterlimit:4;fill:#fff;fill-rule:nonzero;opacity:1" transform="matrix(.06 0 0 -.06 -3.452 102.973)" vector-effect="non-scaling-stroke"/><path d="M1517 1124c-11-11-8-52 3-59 6-3 10-1 10 6 0 8 4 8 16-2 14-11 15-9 12 22-3 32-24 49-41 33" style="stroke:none;stroke-width:1;stroke-dasharray:none;stroke-linecap:butt;stroke-dashoffset:0;stroke-linejoin:miter;stroke-miterlimit:4;fill:#fff;fill-rule:nonzero;opacity:1" transform="matrix(.06 0 0 -.06 -3.46 102.971)" vector-effect="non-scaling-stroke"/></svg>