<svg xmlns="http://www.w3.org/2000/svg" xml:space="preserve" width="32" height="32" aria-hidden="true" class="ugb-custom-icon" viewBox="0 0 100 100"><rect width="100%" height="100%" fill="transparent"/><path d="M50 420c0-273 6-304 67-341 49-30 127-31 175-1 57 35 68 71 68 216v126H260V301c0-95-3-123-16-135-18-18-47-20-75-6-18 10-19 24-19 255v245H50z" style="stroke:none;stroke-width:1;stroke-dasharray:none;stroke-linecap:butt;stroke-dashoffset:0;stroke-linejoin:miter;stroke-miterlimit:4;fill:#fff;fill-rule:nonzero;opacity:1" transform="matrix(.13 0 0 -.13 23.35 96.54)" vector-effect="non-scaling-stroke"/><path d="M260 590v-70h31c53 0 69 15 69 65 0 53-19 75-66 75h-34z" style="stroke:none;stroke-width:1;stroke-dasharray:none;stroke-linecap:butt;stroke-dashoffset:0;stroke-linejoin:miter;stroke-miterlimit:4;fill:#fff;fill-rule:nonzero;opacity:1" transform="matrix(.13 0 0 -.13 23.7 95.77)" vector-effect="non-scaling-stroke"/></svg>